<svg width="32" height="30" viewBox="0 0 32 30" fill="none" xmlns="http://www.w3.org/2000/svg">
<path d="M13.7335 5.61641C14.0557 5.5828 14.388 5.61695 14.701 5.69514C15.6281 5.92683 16.2567 6.49603 16.7343 7.29196C17.114 7.25166 17.4978 7.27516 17.8696 7.36145C18.6632 7.55816 19.3475 8.05242 19.7769 8.73899C19.9888 9.07729 20.1295 9.45419 20.1906 9.84721C20.2516 10.2402 20.2317 10.6413 20.1321 11.0266C19.8668 12.0293 19.2302 12.5514 18.3631 13.0515C18.3872 13.6671 18.3781 14.2857 18.3795 14.9018C18.3802 15.2911 18.4057 15.6972 18.3675 16.0834C18.3511 16.2473 18.3191 16.3815 18.2339 16.5232C18.1094 16.6122 17.982 16.6393 17.8306 16.6575C17.4339 16.7052 17.0029 16.6729 16.6029 16.672L14.2438 16.6637C13.4048 16.7256 12.5162 16.667 11.672 16.6677C11.1101 16.6681 10.4775 16.7339 9.92259 16.6714C9.72461 16.6491 9.64013 16.5188 9.5318 16.3732C9.46181 15.2681 9.52125 14.1263 9.52172 13.0173C9.05956 12.7812 8.66645 12.4914 8.34454 12.084C8.10434 11.78 7.92771 11.4322 7.82485 11.0605C7.722 10.6888 7.69498 10.3007 7.74534 9.9187C7.86585 9.10576 8.30632 8.37227 8.97144 7.87694C9.62928 7.39093 10.408 7.19285 11.2187 7.30412C11.3316 7.10841 11.4442 6.91191 11.5843 6.73349C12.1245 6.04549 12.8771 5.72409 13.7335 5.61641ZM13.7787 6.97361C13.2523 7.07688 12.7988 7.26503 12.4812 7.72051C12.3034 7.97548 12.141 8.70814 11.9194 8.82002C11.626 8.8546 11.319 8.71976 11.0347 8.65792C10.464 8.53374 9.81903 8.76019 9.46534 9.21872C9.17444 9.59583 9.03747 10.1158 9.11536 10.5839C9.18587 11.0073 9.44485 11.3624 9.79923 11.6051C10.1859 11.8699 10.617 11.9224 10.8841 12.3381C10.9333 13.3012 10.8976 14.2809 10.8991 15.246C12.0231 15.2373 13.1471 15.2349 14.2711 15.2389L17.0167 15.2333C17.0164 14.7441 16.9108 12.3112 17.1394 12.0723C17.2468 11.9603 17.4925 11.892 17.6377 11.8356C18.2918 11.5813 18.7704 11.1405 18.8301 10.415C18.8698 9.93592 18.7133 9.50522 18.3912 9.14806C18.0978 8.82285 17.7149 8.65035 17.2741 8.62445C16.8871 8.60167 16.0904 8.96695 15.8472 8.69501C15.7289 8.56258 15.6816 8.33537 15.6212 8.16897C15.3737 7.48423 14.8561 7.08682 14.1281 6.99248C14.0113 6.97738 13.8962 6.97117 13.7787 6.97361Z" fill="white"/>
<path d="M26.7017 1.37416C26.9452 1.35662 27.2374 1.35978 27.4296 1.53501C27.6087 1.69815 27.6171 1.95993 27.5574 2.17788C27.4129 2.70594 26.9495 3.33826 26.6707 3.81854C26.2245 4.58682 25.8081 5.3763 25.3749 6.15282C25.107 6.63371 24.7827 7.12557 24.5683 7.62804C24.5002 7.78785 24.4485 7.95561 24.4562 8.13084C24.4627 8.28304 24.5166 8.39758 24.6338 8.49748C24.7998 8.63877 25.0189 8.74907 25.2442 8.71945C25.3942 8.69975 25.5143 8.62119 25.6071 8.50583C25.9249 8.11104 26.1131 7.56118 26.3453 7.11452L27.9458 4.02555C28.135 3.65622 28.3018 3.2031 28.5675 2.88378C28.708 2.71494 28.8386 2.63473 29.0629 2.61586C29.2401 2.60094 29.4127 2.64671 29.5495 2.76161C29.7115 2.89795 29.7872 3.11748 29.7552 3.32384C29.6937 3.72061 29.3402 4.2025 29.1517 4.56415L27.6986 7.41303C27.4395 7.92685 27.1355 8.45214 26.9266 8.9874C26.8782 9.11187 26.8298 9.25127 26.848 9.38639C26.8691 9.54476 26.9867 9.68387 27.1148 9.77361C27.2582 9.87402 27.4533 9.94063 27.6295 9.90189C27.8322 9.8573 27.9742 9.71098 28.0877 9.54817C28.3462 9.17827 28.5172 8.69243 28.7076 8.28304L29.9481 5.65404C30.1818 5.15494 30.3947 4.56881 30.7063 4.11551C30.8184 3.95241 30.9389 3.82223 31.1453 3.7907C31.3542 3.75881 31.5657 3.84641 31.7233 3.97719C31.8547 4.08603 31.9526 4.21376 31.9584 4.38788C31.9737 4.83486 31.1533 6.38656 30.9301 6.88538L30.0511 8.84987C29.6194 9.81863 29.251 10.7898 28.5234 11.5913C27.8067 12.3807 26.9914 12.7155 26.0075 13.0675C25.8 13.1418 25.4819 13.215 25.3057 13.3407C24.9578 13.5894 24.7154 14.0493 24.5112 14.4119C24.3546 14.6907 24.1544 14.9935 24.0562 15.2981C23.9117 15.7469 24.0074 17.1194 24.0074 17.6611L24.0059 24.6572L24.0096 26.7961C24.0103 27.2151 24.0358 27.6531 23.9892 28.0692C23.9721 28.2216 23.9117 28.3917 23.7985 28.5011C23.4578 28.8318 22.2024 28.7149 21.7204 28.7123L18.4351 28.708C18.6243 28.2058 18.8584 27.7123 19.1052 27.2348C19.5314 27.1907 19.9696 27.2097 20.3984 27.2094L22.5176 27.2104L22.5179 18.0678C22.2435 18.7179 21.8941 19.3537 21.5781 19.9859C21.0161 21.1054 20.4602 22.2279 19.9103 23.3533C19.2466 24.7222 18.5723 26.0862 17.8876 27.445C17.6012 28.0129 17.3467 28.6115 17.0213 29.1582C16.8892 29.3799 16.7298 29.5801 16.5088 29.7225C16.2087 29.914 15.8445 29.9823 15.494 29.9129C15.3236 29.8778 15.1624 29.8083 15.0205 29.709C14.8786 29.6096 14.759 29.4824 14.6692 29.3354C14.4792 29.0298 14.4308 28.6872 14.5342 28.3436C14.7031 27.7822 15.0587 27.2406 15.3393 26.7262L16.6752 24.2816C18.2931 21.3195 19.9245 18.3587 21.4897 15.3694C21.8588 14.6648 22.6941 13.3294 22.895 12.6657C23.1142 11.9433 22.6541 11.0783 22.5194 10.3677C22.3982 9.72867 22.4131 9.11334 22.5776 8.48299C22.6467 8.21355 22.7444 7.95205 22.8692 7.70283C23.0829 7.28203 23.3406 6.87917 23.5786 6.47136L24.8125 4.34125L25.8084 2.61421C26.005 2.2738 26.1917 1.90702 26.4298 1.59351C26.504 1.49566 26.5961 1.43572 26.7017 1.37416Z" fill="white"/>
<path d="M4.30322 0.0934689C5.44557 0.0338159 6.61325 0.0848961 7.75866 0.0859364L14.3232 0.0883392L20.2792 0.0853978C21.2452 0.0852902 22.2491 0.0301931 23.2118 0.0913168C23.4088 0.1038 23.6326 0.158646 23.7815 0.294416C23.9122 0.413615 23.9682 0.623064 23.9933 0.78997C24.0443 1.12852 24.0141 1.4996 24.0134 1.84278L24.005 3.78919C23.5282 4.55582 23.0062 5.30071 22.5053 6.0526C22.5494 5.54815 22.5188 5.02357 22.5188 4.51647L22.5184 1.66396C16.8074 1.66891 11.0892 1.72082 5.37867 1.66052C5.32097 3.9967 5.37382 6.3477 5.37375 8.68522L5.37688 21.6066L13.0743 21.6034L15.4578 21.5991C15.8989 21.5984 16.3685 21.5675 16.8056 21.6227C16.6433 22.1255 16.3346 22.6306 16.0947 23.1041L8.16032 23.0872L5.77152 23.0861C5.2271 23.0872 4.65996 23.0614 4.12078 23.1403C3.65661 23.2057 3.21931 23.3946 2.85592 23.6866C2.41167 24.0414 2.08823 24.5547 2.04189 25.1243C2.00109 25.6258 2.20001 26.11 2.526 26.4885C2.832 26.8436 3.30228 27.1123 3.76651 27.1998C4.44488 27.3278 5.45307 27.2371 6.16732 27.2392L11.0219 27.2435C11.9245 27.2443 12.8439 27.2062 13.7437 27.2719C13.5839 27.7389 13.438 28.2443 13.347 28.7286C12.5328 28.6565 11.6659 28.7153 10.845 28.7153L5.98347 28.7142C5.13745 28.7164 4.17451 28.8132 3.34898 28.6364C2.76925 28.5123 2.22508 28.211 1.7717 27.8386C1.04059 27.2389 0.5805 26.3131 0.50581 25.3829C0.46406 24.8628 0.494271 24.3233 0.496601 23.8014L0.49773 21.2684L0.497294 12.5088L0.495583 6.43476C0.495001 5.6535 0.422128 4.27965 0.528559 3.54222C0.628202 2.81089 0.942069 2.12406 1.43173 1.56582C2.15294 0.719243 3.18582 0.189634 4.30322 0.0934689ZM3.85099 1.72752C3.04679 2.05369 2.45658 2.46223 2.1141 3.27807C1.99592 3.55958 1.96439 3.90656 1.95413 4.20974C1.90383 5.69622 1.95027 7.20082 1.95129 8.68956L1.95249 17.283L1.95311 21.0928C1.95347 21.5244 1.87249 22.113 1.96814 22.5244L2.0025 22.5362L2.05576 22.5018C2.66187 22.0538 3.17576 21.8088 3.92044 21.6533C3.86224 19.5295 3.9132 17.3898 3.9155 15.2648C3.91808 12.8765 3.87626 10.4831 3.90345 8.09536C3.91912 6.53294 3.92243 4.97043 3.91338 3.40796C3.91316 3.03189 3.97526 2.05144 3.90217 1.74259L3.85099 1.72752Z" fill="white"/>
</svg>
